<svg xmlns="http://www.w3.org/2000/svg" xmlns:xlink="http://www.w3.org/1999/xlink" width="500" zoomAndPan="magnify" viewBox="0 0 375 374.999991" height="500" preserveAspectRatio="xMidYMid meet" version="1.0"><defs><clipPath id="7917efbcf1"><path d="M 154 137 L 184 137 L 184 187.710938 L 154 187.710938 Z M 154 137 " clip-rule="nonzero"/></clipPath><clipPath id="519d530f0f"><path d="M 187 179 L 221.140625 179 L 221.140625 187.710938 L 187 187.710938 Z M 187 179 " clip-rule="nonzero"/></clipPath><clipPath id="d308b94310"><path d="M 137.472656 115.089844 L 237.222656 115.089844 L 237.222656 208.832031 L 137.472656 208.832031 Z M 137.472656 115.089844 " clip-rule="nonzero"/></clipPath></defs><g clip-path="url(#7917efbcf1)"><path fill="#f88600" d="M 158.308594 187.710938 C 157.894531 187.710938 157.488281 187.648438 157.09375 187.527344 C 156.699219 187.40625 156.328125 187.230469 155.984375 187 C 155.640625 186.765625 155.335938 186.492188 155.074219 186.167969 C 154.8125 185.847656 154.601562 185.492188 154.441406 185.105469 C 154.285156 184.722656 154.183594 184.324219 154.144531 183.90625 C 154.105469 183.492188 154.125 183.082031 154.207031 182.671875 C 154.285156 182.265625 154.421875 181.875 154.617188 181.507812 C 154.8125 181.140625 155.058594 180.808594 155.351562 180.515625 L 173.3125 162.421875 L 155.351562 144.324219 C 155.160156 144.128906 154.992188 143.914062 154.84375 143.6875 C 154.699219 143.457031 154.574219 143.214844 154.472656 142.960938 C 154.371094 142.707031 154.296875 142.445312 154.246094 142.175781 C 154.195312 141.90625 154.171875 141.632812 154.175781 141.359375 C 154.179688 141.085938 154.207031 140.816406 154.261719 140.546875 C 154.316406 140.28125 154.394531 140.019531 154.5 139.769531 C 154.605469 139.515625 154.734375 139.277344 154.886719 139.046875 C 155.035156 138.820312 155.207031 138.609375 155.402344 138.417969 C 155.59375 138.222656 155.800781 138.050781 156.027344 137.898438 C 156.253906 137.746094 156.492188 137.617188 156.742188 137.511719 C 156.992188 137.40625 157.25 137.324219 157.515625 137.269531 C 157.78125 137.214844 158.050781 137.183594 158.324219 137.183594 C 158.59375 137.179688 158.863281 137.203125 159.132812 137.253906 C 159.398438 137.304688 159.65625 137.382812 159.910156 137.484375 C 160.164062 137.585938 160.402344 137.710938 160.632812 137.859375 C 160.859375 138.007812 161.070312 138.175781 161.265625 138.367188 L 182.1875 159.441406 C 182.382812 159.636719 182.554688 159.847656 182.707031 160.078125 C 182.859375 160.308594 182.988281 160.550781 183.09375 160.808594 C 183.199219 161.0625 183.28125 161.328125 183.332031 161.597656 C 183.386719 161.871094 183.414062 162.144531 183.414062 162.421875 C 183.414062 162.695312 183.386719 162.972656 183.332031 163.242188 C 183.28125 163.511719 183.199219 163.777344 183.09375 164.03125 C 182.988281 164.289062 182.859375 164.53125 182.707031 164.761719 C 182.554688 164.992188 182.382812 165.203125 182.1875 165.398438 L 161.265625 186.472656 C 160.449219 187.300781 159.464844 187.710938 158.308594 187.710938 Z M 158.308594 187.710938 " fill-opacity="1" fill-rule="nonzero"/></g><g clip-path="url(#519d530f0f)"><path fill="#f88600" d="M 216.890625 187.710938 L 191.78125 187.710938 C 191.507812 187.710938 191.234375 187.683594 190.96875 187.628906 C 190.699219 187.574219 190.4375 187.496094 190.183594 187.386719 C 189.929688 187.28125 189.6875 187.152344 189.457031 187 C 189.230469 186.84375 189.019531 186.671875 188.824219 186.476562 C 188.628906 186.277344 188.457031 186.066406 188.304688 185.835938 C 188.152344 185.605469 188.023438 185.363281 187.917969 185.109375 C 187.8125 184.851562 187.734375 184.589844 187.679688 184.316406 C 187.625 184.046875 187.597656 183.769531 187.597656 183.496094 C 187.597656 183.21875 187.625 182.945312 187.679688 182.671875 C 187.734375 182.402344 187.8125 182.136719 187.917969 181.882812 C 188.023438 181.625 188.152344 181.382812 188.304688 181.152344 C 188.457031 180.921875 188.628906 180.710938 188.824219 180.515625 C 189.019531 180.320312 189.230469 180.144531 189.457031 179.988281 C 189.6875 179.835938 189.929688 179.707031 190.183594 179.601562 C 190.4375 179.496094 190.699219 179.414062 190.96875 179.359375 C 191.234375 179.304688 191.507812 179.28125 191.78125 179.28125 L 216.890625 179.28125 C 217.164062 179.28125 217.4375 179.304688 217.707031 179.359375 C 217.976562 179.414062 218.238281 179.496094 218.492188 179.601562 C 218.746094 179.707031 218.984375 179.835938 219.214844 179.988281 C 219.441406 180.144531 219.652344 180.320312 219.847656 180.515625 C 220.042969 180.710938 220.214844 180.921875 220.367188 181.152344 C 220.519531 181.382812 220.648438 181.625 220.753906 181.882812 C 220.859375 182.136719 220.941406 182.402344 220.992188 182.671875 C 221.046875 182.945312 221.074219 183.21875 221.074219 183.496094 C 221.074219 183.769531 221.046875 184.046875 220.992188 184.316406 C 220.941406 184.589844 220.859375 184.851562 220.753906 185.109375 C 220.648438 185.363281 220.519531 185.605469 220.367188 185.835938 C 220.214844 186.066406 220.042969 186.277344 219.847656 186.476562 C 219.652344 186.671875 219.441406 186.84375 219.214844 187 C 218.984375 187.152344 218.746094 187.28125 218.492188 187.386719 C 218.238281 187.496094 217.976562 187.574219 217.707031 187.628906 C 217.4375 187.683594 217.164062 187.710938 216.890625 187.710938 Z M 216.890625 187.710938 " fill-opacity="1" fill-rule="nonzero"/></g><g clip-path="url(#d308b94310)"><path stroke-linecap="butt" transform="matrix(0.747804, 0, 0, 0.747757, 137.473061, 115.089681)" fill="none" stroke-linejoin="miter" d="M -0.000541349 0.000217327 L 133.390099 0.000217327 L 133.390099 125.364779 L -0.000541349 125.364779 Z M -0.000541349 0.000217327 " stroke="#f88600" stroke-width="20" stroke-opacity="1" stroke-miterlimit="4"/></g></svg>