<svg xmlns="http://www.w3.org/2000/svg" xmlns:xlink="http://www.w3.org/1999/xlink" width="500" zoomAndPan="magnify" viewBox="0 0 375 374.999991" height="500" preserveAspectRatio="xMidYMid meet" version="1.0"><defs><g/><clipPath id="b27e311739"><path d="M 62.015625 137 L 84 137 L 84 174.210938 L 62.015625 174.210938 Z M 62.015625 137 " clip-rule="nonzero"/></clipPath><clipPath id="584e2e0a06"><path d="M 86 168 L 111.515625 168 L 111.515625 174.210938 L 86 174.210938 Z M 86 168 " clip-rule="nonzero"/></clipPath></defs><g clip-path="url(#b27e311739)"><path fill="#f88600" d="M 65.441406 174.210938 C 64.820312 174.210938 64.253906 174.035156 63.738281 173.6875 C 63.222656 173.339844 62.84375 172.875 62.609375 172.296875 C 62.371094 171.71875 62.3125 171.121094 62.433594 170.503906 C 62.554688 169.890625 62.832031 169.363281 63.273438 168.917969 L 76.445312 155.613281 L 63.273438 142.308594 C 62.992188 142.015625 62.777344 141.683594 62.628906 141.304688 C 62.480469 140.929688 62.40625 140.535156 62.410156 140.128906 C 62.414062 139.722656 62.496094 139.332031 62.648438 138.957031 C 62.804688 138.582031 63.027344 138.253906 63.308594 137.964844 C 63.59375 137.679688 63.921875 137.457031 64.292969 137.296875 C 64.664062 137.140625 65.050781 137.0625 65.453125 137.058594 C 65.855469 137.054688 66.242188 137.128906 66.617188 137.277344 C 66.992188 137.429688 67.320312 137.644531 67.609375 137.925781 L 82.953125 153.421875 C 83.242188 153.714844 83.460938 154.050781 83.617188 154.429688 C 83.773438 154.808594 83.851562 155.203125 83.851562 155.613281 C 83.851562 156.023438 83.773438 156.421875 83.617188 156.800781 C 83.460938 157.179688 83.242188 157.515625 82.953125 157.804688 L 67.609375 173.300781 C 67.011719 173.910156 66.289062 174.210938 65.441406 174.210938 Z M 65.441406 174.210938 " fill-opacity="1" fill-rule="nonzero"/></g><g clip-path="url(#584e2e0a06)"><path fill="#f88600" d="M 108.398438 174.210938 L 89.988281 174.210938 C 89.582031 174.210938 89.191406 174.128906 88.816406 173.972656 C 88.4375 173.816406 88.105469 173.59375 87.820312 173.300781 C 87.53125 173.011719 87.308594 172.675781 87.15625 172.296875 C 87 171.917969 86.921875 171.519531 86.921875 171.109375 C 86.921875 170.699219 87 170.304688 87.15625 169.925781 C 87.308594 169.542969 87.53125 169.210938 87.820312 168.917969 C 88.105469 168.628906 88.4375 168.402344 88.816406 168.246094 C 89.191406 168.089844 89.582031 168.011719 89.988281 168.011719 L 108.398438 168.011719 C 108.808594 168.011719 109.199219 168.089844 109.574219 168.246094 C 109.949219 168.402344 110.28125 168.628906 110.570312 168.917969 C 110.855469 169.210938 111.078125 169.542969 111.234375 169.925781 C 111.390625 170.304688 111.46875 170.699219 111.46875 171.109375 C 111.46875 171.519531 111.390625 171.917969 111.234375 172.296875 C 111.078125 172.675781 110.855469 173.011719 110.570312 173.300781 C 110.28125 173.59375 109.949219 173.816406 109.574219 173.972656 C 109.199219 174.128906 108.808594 174.210938 108.398438 174.210938 Z M 108.398438 174.210938 " fill-opacity="1" fill-rule="nonzero"/></g><g fill="#000000" fill-opacity="1"><g transform="translate(114.827818, 172.181794)"><g><path d="M 5.554688 0.25 C 6.328125 0.25 6.996094 -0.0195312 7.519531 -0.542969 C 8.019531 -1.042969 8.332031 -1.734375 8.332031 -2.484375 L 8.332031 -6.703125 L 13.386719 -6.703125 C 16.207031 -6.703125 18.839844 -7.8125 20.757812 -9.710938 C 22.679688 -11.613281 23.808594 -14.222656 23.808594 -17 C 23.808594 -20.070312 22.703125 -22.640625 20.757812 -24.5625 C 18.839844 -26.460938 16.207031 -27.589844 13.386719 -27.589844 L 5.554688 -27.589844 C 4.804688 -27.589844 4.09375 -27.277344 3.59375 -26.773438 C 3.089844 -26.273438 2.777344 -25.5625 2.777344 -24.8125 L 2.777344 -2.484375 C 2.777344 -1.734375 3.089844 -1.042969 3.59375 -0.542969 C 4.09375 -0.0429688 4.804688 0.25 5.554688 0.25 Z M 8.332031 -12.257812 L 8.332031 -22.011719 L 13.472656 -22.011719 C 14.703125 -22.011719 15.933594 -21.46875 16.792969 -20.570312 C 17.648438 -19.714844 18.210938 -18.273438 18.210938 -17 C 18.210938 -15.769531 17.667969 -14.597656 16.8125 -13.699219 C 15.957031 -12.800781 14.722656 -12.257812 13.472656 -12.257812 Z M 8.332031 -12.257812 "/></g></g></g><g fill="#000000" fill-opacity="1"><g transform="translate(139.486801, 172.181794)"><g><path d="M 4.699219 0 C 5.449219 0 6.097656 -0.273438 6.621094 -0.792969 C 7.121094 -1.273438 7.414062 -1.964844 7.414062 -2.734375 L 7.414062 -9.523438 C 7.433594 -10.882812 8 -12.15625 8.9375 -13.09375 C 9.859375 -14.035156 11.089844 -14.597656 12.449219 -14.621094 L 12.574219 -14.621094 C 13.34375 -14.621094 14.097656 -14.910156 14.621094 -15.414062 C 15.183594 -15.976562 15.453125 -16.625 15.453125 -17.398438 C 15.453125 -19.046875 14.390625 -20.152344 12.574219 -20.152344 L 12.40625 -20.152344 C 9.585938 -20.089844 6.996094 -18.964844 5.074219 -17.0625 C 3.132812 -15.140625 1.941406 -12.53125 1.859375 -9.753906 L 1.859375 -2.734375 C 1.859375 -1.984375 2.191406 -1.292969 2.714844 -0.792969 C 3.214844 -0.292969 3.949219 0 4.699219 0 Z M 4.699219 0 "/></g></g></g><g fill="#000000" fill-opacity="1"><g transform="translate(155.397166, 172.181794)"><g><path d="M 11.109375 0.230469 C 13.867188 0.230469 16.457031 -0.898438 18.316406 -2.757812 C 20.214844 -4.65625 21.300781 -7.183594 21.300781 -9.941406 C 21.300781 -12.699219 20.175781 -15.265625 18.316406 -17.167969 C 16.457031 -19.027344 13.867188 -20.152344 11.109375 -20.152344 C 8.355469 -20.152344 5.828125 -19.066406 3.925781 -17.167969 C 2.027344 -15.265625 0.917969 -12.699219 0.917969 -9.941406 C 0.917969 -7.183594 2.027344 -4.617188 3.925781 -2.757812 C 5.828125 -0.855469 8.355469 0.230469 11.109375 0.230469 Z M 11.109375 -5.347656 C 9.878906 -5.347656 8.710938 -5.847656 7.875 -6.683594 C 7.015625 -7.539062 6.496094 -8.6875 6.496094 -9.941406 C 6.496094 -11.195312 7.015625 -12.34375 7.875 -13.199219 C 8.710938 -14.035156 9.878906 -14.535156 11.109375 -14.535156 C 12.363281 -14.535156 13.554688 -14.035156 14.390625 -13.199219 C 15.246094 -12.34375 15.746094 -11.195312 15.746094 -9.941406 C 15.746094 -8.6875 15.246094 -7.539062 14.390625 -6.683594 C 13.554688 -5.847656 12.363281 -5.347656 11.109375 -5.347656 Z M 11.109375 -5.347656 "/></g></g></g><g fill="#000000" fill-opacity="1"><g transform="translate(177.613214, 172.181794)"><g><path d="M 4.636719 0 C 5.386719 0 6.035156 -0.273438 6.558594 -0.792969 C 7.058594 -1.292969 7.351562 -1.984375 7.371094 -2.734375 L 7.457031 -13.136719 C 7.457031 -13.199219 7.433594 -13.34375 7.414062 -13.535156 C 7.644531 -14.453125 8.457031 -15.101562 9.441406 -15.101562 C 9.941406 -15.101562 10.464844 -14.871094 10.820312 -14.515625 C 11.171875 -14.160156 11.402344 -13.636719 11.402344 -13.136719 L 11.402344 -13.117188 L 11.445312 -12.863281 L 11.445312 -2.820312 C 11.445312 -2.046875 11.714844 -1.398438 12.257812 -0.855469 C 12.800781 -0.3125 13.449219 -0.0429688 14.222656 -0.0429688 C 14.972656 -0.0429688 15.664062 -0.355469 16.164062 -0.855469 C 16.6875 -1.421875 16.957031 -2.066406 16.957031 -2.820312 L 16.957031 -13.242188 C 16.9375 -13.28125 16.9375 -13.34375 16.9375 -13.40625 C 17.082031 -14.347656 17.898438 -15.058594 18.878906 -15.058594 C 19.382812 -15.058594 19.925781 -14.847656 20.34375 -14.515625 C 20.757812 -14.160156 21.03125 -13.636719 21.03125 -13.136719 L 21.03125 -2.734375 C 21.03125 -1.984375 21.34375 -1.292969 21.847656 -0.792969 C 22.367188 -0.273438 23.035156 0 23.808594 0 C 24.5625 0 25.207031 -0.273438 25.730469 -0.792969 C 26.230469 -1.292969 26.542969 -1.984375 26.542969 -2.734375 L 26.542969 -13.304688 C 26.542969 -15.308594 25.6875 -17.1875 24.246094 -18.585938 C 22.804688 -19.988281 20.863281 -20.78125 18.839844 -20.78125 C 17.105469 -20.78125 15.539062 -20.214844 14.097656 -19.066406 C 12.65625 -20.214844 11.070312 -20.78125 9.335938 -20.78125 C 7.308594 -20.78125 5.429688 -19.988281 4.074219 -18.585938 C 2.671875 -17.1875 1.859375 -15.328125 1.859375 -13.304688 L 1.859375 -2.734375 C 1.859375 -1.984375 2.171875 -1.292969 2.671875 -0.792969 C 3.195312 -0.273438 3.863281 0 4.636719 0 Z M 4.636719 0 "/></g></g></g><g fill="#000000" fill-opacity="1"><g transform="translate(205.717349, 172.181794)"><g><path d="M 4.699219 7.226562 C 5.492188 7.226562 6.140625 6.953125 6.664062 6.390625 C 7.164062 5.847656 7.414062 5.160156 7.414062 4.324219 L 7.414062 -0.898438 C 8.875 -0.144531 10.421875 0.230469 12.070312 0.230469 C 14.808594 0.230469 17.398438 -0.898438 19.257812 -2.757812 C 21.15625 -4.65625 22.242188 -7.183594 22.242188 -9.941406 C 22.242188 -12.699219 21.113281 -15.265625 19.257812 -17.167969 C 17.398438 -19.027344 14.808594 -20.152344 12.070312 -20.152344 C 9.378906 -20.152344 6.789062 -19.046875 4.929688 -17.210938 C 3.027344 -15.351562 1.878906 -12.800781 1.859375 -10.109375 L 1.859375 4.324219 C 1.859375 5.136719 2.191406 5.867188 2.714844 6.390625 C 3.214844 6.914062 3.949219 7.226562 4.699219 7.226562 Z M 12.070312 -5.347656 C 10.820312 -5.347656 9.648438 -5.847656 8.8125 -6.683594 C 7.957031 -7.539062 7.433594 -8.6875 7.433594 -9.941406 C 7.433594 -11.195312 7.957031 -12.34375 8.8125 -13.199219 C 9.648438 -14.035156 10.820312 -14.535156 12.070312 -14.535156 C 13.324219 -14.535156 14.496094 -14.035156 15.328125 -13.199219 C 16.1875 -12.34375 16.6875 -11.195312 16.6875 -9.941406 C 16.6875 -8.6875 16.1875 -7.539062 15.328125 -6.683594 C 14.496094 -5.847656 13.324219 -5.347656 12.070312 -5.347656 Z M 12.070312 -5.347656 "/></g></g></g><g fill="#000000" fill-opacity="1"><g transform="translate(228.872991, 172.181794)"><g><path d="M 12.050781 0.25 C 14.578125 0.25 16.8125 -0.585938 18.546875 -2.253906 C 19.191406 -2.902344 19.546875 -3.78125 19.546875 -4.636719 C 19.546875 -5.324219 19.296875 -5.929688 18.777344 -6.472656 C 18.335938 -6.953125 17.648438 -7.226562 17.042969 -7.226562 C 16.3125 -7.226562 15.601562 -6.914062 14.933594 -6.285156 C 14.222656 -5.640625 13.261719 -5.304688 12.050781 -5.304688 C 10.796875 -5.304688 9.691406 -5.785156 8.855469 -6.640625 C 8.019531 -7.476562 7.558594 -8.644531 7.558594 -9.898438 L 7.558594 -15.308594 L 13.972656 -15.308594 C 14.722656 -15.308594 15.433594 -15.601562 15.957031 -16.101562 C 16.5 -16.625 16.769531 -17.25 16.769531 -17.980469 C 16.769531 -18.734375 16.457031 -19.445312 15.957031 -19.964844 C 15.433594 -20.46875 14.722656 -20.78125 13.972656 -20.78125 L 7.558594 -20.78125 L 7.558594 -23.453125 C 7.558594 -24.207031 7.207031 -24.9375 6.683594 -25.457031 C 6.160156 -25.960938 5.410156 -26.273438 4.65625 -26.273438 C 3.90625 -26.273438 3.195312 -25.960938 2.695312 -25.457031 C 2.171875 -24.9375 1.859375 -24.207031 1.859375 -23.453125 L 1.859375 -9.941406 C 1.859375 -7.183594 2.988281 -4.59375 4.84375 -2.734375 C 6.703125 -0.878906 9.292969 0.25 12.050781 0.25 Z M 12.050781 0.25 "/></g></g></g><g fill="#000000" fill-opacity="1"><g transform="translate(248.875786, 172.181794)"><g><path d="M 5.554688 0.25 C 6.328125 0.25 6.996094 -0.0195312 7.519531 -0.542969 C 8.019531 -1.042969 8.332031 -1.734375 8.332031 -2.484375 L 8.332031 -6.703125 L 13.386719 -6.703125 C 16.207031 -6.703125 18.839844 -7.8125 20.757812 -9.710938 C 22.679688 -11.613281 23.808594 -14.222656 23.808594 -17 C 23.808594 -20.070312 22.703125 -22.640625 20.757812 -24.5625 C 18.839844 -26.460938 16.207031 -27.589844 13.386719 -27.589844 L 5.554688 -27.589844 C 4.804688 -27.589844 4.09375 -27.277344 3.59375 -26.773438 C 3.089844 -26.273438 2.777344 -25.5625 2.777344 -24.8125 L 2.777344 -2.484375 C 2.777344 -1.734375 3.089844 -1.042969 3.59375 -0.542969 C 4.09375 -0.0429688 4.804688 0.25 5.554688 0.25 Z M 8.332031 -12.257812 L 8.332031 -22.011719 L 13.472656 -22.011719 C 14.703125 -22.011719 15.933594 -21.46875 16.792969 -20.570312 C 17.648438 -19.714844 18.210938 -18.273438 18.210938 -17 C 18.210938 -15.769531 17.667969 -14.597656 16.8125 -13.699219 C 15.957031 -12.800781 14.722656 -12.257812 13.472656 -12.257812 Z M 8.332031 -12.257812 "/></g></g></g><g fill="#000000" fill-opacity="1"><g transform="translate(273.53477, 172.181794)"><g><path d="M 11.109375 0.230469 C 12.886719 0.230469 14.558594 -0.207031 16.125 -1.085938 C 16.625 -0.25 17.4375 0.230469 18.460938 0.230469 C 19.234375 0.230469 19.964844 -0.0820312 20.488281 -0.605469 C 21.03125 -1.148438 21.300781 -1.816406 21.300781 -2.609375 L 21.300781 -10.109375 C 21.238281 -12.84375 20.113281 -15.371094 18.253906 -17.210938 C 16.394531 -19.066406 13.847656 -20.152344 11.109375 -20.152344 C 8.355469 -20.152344 5.828125 -19.066406 3.925781 -17.167969 C 2.027344 -15.265625 0.917969 -12.699219 0.917969 -9.941406 C 0.917969 -7.183594 2.027344 -4.617188 3.925781 -2.757812 C 5.828125 -0.855469 8.355469 0.230469 11.109375 0.230469 Z M 11.109375 -5.347656 C 9.878906 -5.347656 8.710938 -5.847656 7.875 -6.683594 C 7.015625 -7.539062 6.496094 -8.6875 6.496094 -9.941406 C 6.496094 -11.195312 7.015625 -12.34375 7.875 -13.199219 C 8.710938 -14.035156 9.878906 -14.535156 11.109375 -14.535156 C 12.363281 -14.535156 13.554688 -14.035156 14.390625 -13.199219 C 15.246094 -12.34375 15.746094 -11.195312 15.746094 -9.941406 C 15.746094 -8.6875 15.246094 -7.539062 14.390625 -6.683594 C 13.554688 -5.847656 12.363281 -5.347656 11.109375 -5.347656 Z M 11.109375 -5.347656 "/></g></g></g><g fill="#000000" fill-opacity="1"><g transform="translate(296.690411, 172.181794)"><g><path d="M 9.960938 0 C 10.714844 0 11.445312 -0.292969 11.925781 -0.773438 C 12.425781 -1.273438 12.699219 -1.964844 12.699219 -2.714844 C 12.699219 -3.46875 12.425781 -4.15625 11.925781 -4.65625 C 11.445312 -5.160156 10.734375 -5.449219 9.960938 -5.449219 C 8.9375 -5.449219 8.394531 -5.847656 8.332031 -6.640625 L 8.332031 -24.601562 C 8.332031 -25.355469 8 -26.042969 7.476562 -26.566406 C 6.953125 -27.066406 6.203125 -27.378906 5.449219 -27.378906 C 4.71875 -27.378906 4.09375 -27.109375 3.570312 -26.566406 C 3.050781 -26.042969 2.777344 -25.375 2.777344 -24.601562 L 2.777344 -6.765625 C 2.777344 -4.824219 3.570312 -3.113281 4.90625 -1.878906 C 6.246094 -0.6875 8.039062 0 9.960938 0 Z M 9.960938 0 "/></g></g></g></svg>